<svg width="32" height="32" viewBox="0 0 32 32" fill="none" xmlns="http://www.w3.org/2000/svg">
	<path fill-rule="evenodd" clip-rule="evenodd" d="M21.976 4.0076C23.9052 4.0076 25.7554 4.77397 27.1195 6.13813C28.4837 7.50229 29.25 9.35248 29.25 11.2817C29.25 13.1389 28.5398 14.9228 27.2698 16.2704L19.8595 8.86006L19.3291 8.32973L18.7988 8.86006L15.9471 11.7117C15.6363 12.0226 15.2147 12.1972 14.775 12.1972C14.3354 12.1972 13.9138 12.0226 13.603 11.7117C13.2921 11.4009 13.1175 10.9793 13.1175 10.5397C13.1175 10.1 13.2921 9.67842 13.603 9.36757L16.5103 6.46028L16.5211 6.4496L16.5318 6.43871L16.8324 6.13813C18.1966 4.77397 20.0468 4.0076 21.976 4.0076ZM12.5423 8.30691L14.9246 5.92465C13.5878 4.70598 11.841 4.02623 10.0241 4.02623C8.09488 4.02623 6.24468 4.7926 4.88053 6.15676C3.51637 7.52091 2.75 9.37111 2.75 11.3003C2.75 13.2295 3.51637 15.0797 4.88053 16.4439L4.88082 16.4442L6.88047 18.446L6.90598 18.4201L8.55981 16.7663C9.49542 15.8307 11.0124 15.8307 11.948 16.7663C12.3987 17.217 12.6323 17.8026 12.6487 18.3932C13.2391 18.4098 13.8245 18.6434 14.275 19.0939C14.355 19.174 14.4282 19.2583 14.4946 19.3461L16.3449 21.1964C16.4349 21.264 16.5213 21.3387 16.6032 21.4206C16.6852 21.5026 16.7599 21.5889 16.8275 21.679L18.676 23.5276C18.7646 23.5943 18.8496 23.668 18.9303 23.7487C19.011 23.8294 19.0847 23.9144 19.1514 24.0029L19.8911 24.7426L19.8913 24.7428C20.0912 24.9421 20.6945 25.0426 21.2699 24.4643C21.8497 23.8814 21.7458 23.2776 21.5514 23.0831L21.5391 23.0706L15.4409 16.9724C15.148 16.6795 15.148 16.2046 15.4409 15.9117C15.7338 15.6188 16.2087 15.6188 16.5016 15.9117L22.6119 22.022C22.8175 22.2273 23.404 22.3215 23.9452 21.7804C24.481 21.2446 24.3969 20.6635 24.1948 20.4494L24.1875 20.4422L24.1871 20.4418L18.0764 14.331C17.7835 14.0381 17.7835 13.5633 18.0764 13.2704C18.3693 12.9775 18.8441 12.9775 19.137 13.2704L25.2358 19.3691L25.2479 19.381L25.2555 19.3886C25.4844 19.6054 26.0527 19.6764 26.551 19.1774C27.0561 18.6717 26.9755 18.0976 26.7544 17.8764L26.7466 17.8686L19.3291 10.4511L17.0078 12.7724C16.4156 13.3645 15.6125 13.6972 14.775 13.6972C13.9376 13.6972 13.1345 13.3645 12.5423 12.7724C11.9501 12.1802 11.6175 11.3771 11.6175 10.5397C11.6175 9.70221 11.9501 8.89907 12.5423 8.30691ZM19.4932 26.2481C20.438 26.6374 21.5949 26.2643 22.3333 25.5222C22.8213 25.0316 23.1505 24.3568 23.203 23.6824C23.8624 23.6373 24.5221 23.3247 25.0058 22.841C25.4851 22.3618 25.798 21.7079 25.8476 21.0524C26.4939 21.0114 27.1383 20.7121 27.6124 20.2374C28.3491 19.4996 28.6625 18.3514 28.2402 17.4253C29.8481 15.7858 30.75 13.5803 30.75 11.2817C30.75 8.95466 29.8256 6.72293 28.1802 5.07747C26.5347 3.43201 24.303 2.5076 21.976 2.5076C19.7503 2.5076 17.6118 3.35325 15.99 4.86662C14.3707 3.36494 12.2406 2.52623 10.0241 2.52623C7.69705 2.52623 5.46533 3.45064 3.81987 5.0961C2.17441 6.74156 1.25 8.97328 1.25 11.3003C1.25 13.6273 2.17441 15.8591 3.81987 17.5045L6.21372 19.901C6.15314 20.5831 6.3839 21.2862 6.90598 21.8083C7.35654 22.2588 7.94191 22.4924 8.53224 22.509C8.54871 23.0996 8.7823 23.6852 9.23302 24.1359C9.68389 24.5868 10.2698 24.8204 10.8605 24.8367C10.8772 25.4269 11.1108 26.0122 11.5613 26.4626C12.0118 26.9132 12.5972 27.1468 13.1875 27.1634C13.2039 27.7541 13.4375 28.3399 13.8883 28.7907C14.8239 29.7263 16.3408 29.7263 17.2765 28.7907L18.9303 27.1369C19.19 26.8771 19.3777 26.5726 19.4932 26.2481ZM17.7086 24.6815L17.9975 24.9704C18.2124 25.3159 18.1698 25.7761 17.8696 26.0762L16.2158 27.73C15.866 28.0798 15.2988 28.0798 14.949 27.73C14.5991 27.3802 14.5991 26.813 14.949 26.4632L16.6028 24.8094C16.9029 24.5092 17.363 24.4666 17.7086 24.6815ZM13.3414 20.3142C13.5557 20.6576 13.5155 21.1146 13.2205 21.4152L13.2151 21.4206L11.5613 23.0745L11.5549 23.0808C11.2047 23.4251 10.6416 23.4232 10.2937 23.0753C9.94802 22.7296 9.9439 22.1717 10.2813 21.821L10.2941 21.8083L11.948 20.1545L11.9602 20.1421C12.2777 19.8368 12.7648 19.8113 13.1107 20.0655C13.1364 20.1031 13.166 20.1389 13.1994 20.1723L13.3414 20.3142ZM12.6219 25.402C12.2741 25.0542 12.2721 24.4915 12.6159 24.1412L12.6212 24.1359L14.275 22.4821L14.2815 22.4755C14.581 22.1814 15.0358 22.1401 15.3789 22.3517L15.6722 22.645C15.8851 22.9903 15.8419 23.4488 15.5426 23.7481L13.8888 25.402C13.5389 25.7518 12.9717 25.7518 12.6219 25.402ZM10.8996 19.0813L10.8868 19.0939L9.23302 20.7478L9.22073 20.7601C8.87 21.0974 8.31225 21.0932 7.96664 20.7476C7.61681 20.3978 7.61681 19.8306 7.96664 19.4808L9.62047 17.827C9.9703 17.4771 10.5375 17.4771 10.8873 17.827C11.233 18.1726 11.2371 18.7305 10.8996 19.0813Z" fill="#222222" />
</svg>
