<svg viewBox="0 0 96 96" fill="none" xmlns="http://www.w3.org/2000/svg">
    <path fill-rule="evenodd" clip-rule="evenodd"
        d="M18.8089 18.9348C18.3289 19.0634 18.0162 19.525 18.0747 20.0184L18.498 23.5894C17.8365 24.009 17.2194 24.4833 16.6512 25.0057L13.3125 23.6724C12.8509 23.4881 12.3241 23.6707 12.0756 24.1011L9.64372 28.3132C9.39526 28.7435 9.50049 29.291 9.89078 29.5986L12.7141 31.8236C12.5457 32.5769 12.4435 33.3487 12.4109 34.1314L9.10672 35.5511C8.65023 35.7472 8.40697 36.2488 8.53556 36.7287L9.79452 41.4272C9.92314 41.9072 10.3847 42.2199 10.8782 42.1614L14.4491 41.7381C14.8687 42.3996 15.343 43.0167 15.8655 43.5849L14.5321 46.9236C14.3478 47.3852 14.5304 47.912 14.9608 48.1605L19.1729 50.5924C19.6033 50.8408 20.1508 50.7356 20.4583 50.3453L22.6833 47.522C23.4366 47.6904 24.2083 47.7926 24.991 47.8252L26.4098 51.1294C26.6059 51.586 27.1075 51.8294 27.5875 51.7008L32.286 50.4418C32.766 50.3132 33.0788 49.8516 33.0203 49.3582L32.5969 45.7872C33.2584 45.3676 33.8756 44.8933 34.4438 44.3708L37.7824 45.7034C38.2439 45.8876 38.7706 45.705 39.0191 45.2746L41.451 41.0625C41.6994 40.6322 41.5942 40.0847 41.2039 39.7771L38.3806 37.5521C38.549 36.7988 38.6512 36.0271 38.6838 35.2444L41.9889 33.8253C42.4455 33.6293 42.6889 33.1277 42.5603 32.6476L41.3013 27.9492C41.1727 27.4692 40.7111 27.1564 40.2177 27.2149L36.6467 27.6383C36.2271 26.9767 35.7528 26.3596 35.2303 25.7914L36.5629 22.4528C36.7471 21.9913 36.5645 21.4645 36.1341 21.2161L31.922 18.7842C31.4917 18.5358 30.9442 18.641 30.6366 19.0313L28.4116 21.8546C27.6583 21.6862 26.8866 21.584 26.1039 21.5514L24.6851 18.2472C24.489 17.7906 23.9874 17.5472 23.5074 17.6758L18.8089 18.9348ZM20.5603 23.9965L20.1627 20.6426L23.1889 19.8317L24.5215 22.9351C24.6806 23.3056 25.0466 23.5443 25.4498 23.5405C26.5044 23.5305 27.5383 23.6694 28.5282 23.9452C28.9167 24.0534 29.3323 23.9176 29.5819 23.6008L31.6716 20.9491L34.3845 22.5153L33.1329 25.6509C32.9834 26.0255 33.0735 26.4533 33.3615 26.7357C34.0952 27.4551 34.7325 28.281 35.2512 29.1993C35.4495 29.5504 35.8392 29.748 36.2396 29.7005L39.5935 29.3029L40.4044 32.3291L37.3001 33.662C36.9296 33.8211 36.6909 34.1871 36.6947 34.5903C36.7046 35.6449 36.5657 36.6788 36.29 37.6687C36.1818 38.0572 36.3176 38.4728 36.6344 38.7224L39.2861 40.8121L37.7198 43.525L34.5842 42.2734C34.2096 42.1239 33.7819 42.214 33.4995 42.502C32.7801 43.2357 31.9541 43.873 31.0359 44.3917C30.6848 44.59 30.4872 44.9797 30.5346 45.3801L30.9323 48.734L27.906 49.5449L26.5734 46.4415C26.4143 46.0711 26.0483 45.8323 25.6452 45.8361C24.5905 45.8461 23.5566 45.7072 22.5667 45.4314C22.1782 45.3232 21.7627 45.459 21.513 45.7758L19.4233 48.4275L16.7106 46.8614L17.9629 43.7256C18.1125 43.3509 18.0224 42.9231 17.7343 42.6407C17.0006 41.9213 16.3634 41.0953 15.8446 40.177C15.6463 39.826 15.2566 39.6284 14.8562 39.6758L11.5023 40.0734L10.6914 37.047L13.7948 35.7136C14.1651 35.5545 14.4037 35.1885 14.4 34.7854C14.39 33.7308 14.5289 32.6969 14.8047 31.707C14.9129 31.3184 14.7771 30.9029 14.4603 30.6533L11.8086 28.5635L13.3747 25.8508L16.5105 27.1031C16.8852 27.2528 17.313 27.1626 17.5954 26.8746C18.3148 26.1409 19.1408 25.5036 20.0591 24.9849C20.4101 24.7866 20.6077 24.3969 20.5603 23.9965ZM22.109 35.6088C21.6001 33.7095 22.7272 31.7573 24.6264 31.2484C26.5257 30.7395 28.4779 31.8666 28.9868 33.7659C29.4957 35.6651 28.3686 37.6173 26.4694 38.1262C24.5701 38.6351 22.6179 37.508 22.109 35.6088ZM24.1088 29.3165C21.1426 30.1113 19.3823 33.1602 20.1771 36.1264C20.9719 39.0926 24.0208 40.8529 26.987 40.0581C29.9532 39.2633 31.7135 36.2144 30.9187 33.2482C30.1239 30.282 27.075 28.5218 24.1088 29.3165ZM57.8389 27.6241C57.9101 27.1323 58.3316 26.7674 58.8286 26.7674H66.2823C66.7792 26.7674 67.2007 27.1323 67.272 27.6241L68.1101 33.4122C69.4488 33.8066 70.7278 34.3383 71.9315 34.9942L76.6154 31.4953C77.0136 31.1979 77.5696 31.2379 77.921 31.5893L83.191 36.8593C83.5424 37.2107 83.5825 37.7668 83.2851 38.1649L79.7862 42.8488C80.4421 44.0526 80.9738 45.3315 81.3681 46.6703L87.1562 47.5084C87.648 47.5796 88.0129 48.0011 88.0129 48.4981V55.9518C88.0129 56.4487 87.648 56.8703 87.1562 56.9415L81.3667 57.7796C80.9723 59.1183 80.4406 60.3973 79.7847 61.601L83.2836 66.285C83.581 66.6831 83.5409 67.2392 83.1896 67.5905L77.9196 72.8605C77.5682 73.2119 77.0121 73.252 76.614 72.9546L71.9301 69.4557C70.7263 70.1116 69.4473 70.6433 68.1086 71.0376L67.2705 76.8257C67.1993 77.3175 66.7777 77.6824 66.2808 77.6824H58.8271C58.3302 77.6824 57.9086 77.3175 57.8374 76.8257L56.9993 71.0376C55.6606 70.6433 54.3816 70.1116 53.1779 69.4557L48.4939 72.9546C48.0958 73.252 47.5397 73.2119 47.1884 72.8605L41.9184 67.5905C41.5669 67.2391 41.5269 66.6829 41.8244 66.2848L45.3246 61.6009C44.6687 60.3972 44.137 59.1183 43.7427 57.7796L37.9546 56.9415C37.4628 56.8703 37.0979 56.4487 37.0979 55.9518V48.4981C37.0979 48.0012 37.4627 47.5797 37.9544 47.5084L43.7427 46.669C44.137 45.3302 44.6687 44.0511 45.3246 42.8474L41.8258 38.1634C41.5284 37.7653 41.5684 37.2093 41.9198 36.8579L47.1898 31.5879C47.5412 31.2364 48.0974 31.1964 48.4955 31.4939L53.1794 34.9941C54.3831 34.3382 55.6621 33.8065 57.0008 33.4122L57.8389 27.6241ZM59.6942 28.7674L58.8865 34.3454C58.8287 34.7444 58.537 35.0697 58.1466 35.1704C56.5331 35.5865 55.0115 36.2214 53.6128 37.0474C53.2655 37.2525 52.8289 37.2289 52.5057 36.9874L47.9918 33.6143L43.9461 37.66L47.318 42.1739C47.5594 42.4971 47.583 42.9336 47.3779 43.2809C46.5519 44.6795 45.917 46.2011 45.5009 47.8146C45.4002 48.205 45.075 48.4967 44.6761 48.5546L39.0979 49.3635V55.0862L44.6759 55.8938C45.0749 55.9516 45.4002 56.2434 45.5009 56.6338C45.917 58.2473 46.5519 59.7689 47.3779 61.1675C47.583 61.5149 47.5593 61.9515 47.3179 62.2746L43.9448 66.7885L47.9905 70.8342L52.5044 67.4624C52.8276 67.221 53.2641 67.1974 53.6114 67.4025C55.01 68.2284 56.5316 68.8633 58.1451 69.2795C58.5355 69.3801 58.8273 69.7054 58.8851 70.1045L59.6927 75.6824H65.4152L66.2229 70.1045C66.2806 69.7054 66.5724 69.3801 66.9628 69.2795C68.5763 68.8633 70.0979 68.2284 71.4965 67.4025C71.8438 67.1974 72.2804 67.221 72.6035 67.4624L77.1174 70.8342L81.1633 66.7884L77.7914 62.2745C77.55 61.9513 77.5264 61.5148 77.7315 61.1675C78.5575 59.7689 79.1924 58.2473 79.6085 56.6338C79.7092 56.2433 80.0345 55.9516 80.4335 55.8938L86.0129 55.0861V49.3637L80.435 48.556C80.0359 48.4983 79.7106 48.2065 79.61 47.8161C79.1938 46.2026 78.5589 44.681 77.7329 43.2824C77.5278 42.935 77.5515 42.4985 77.7929 42.1754L81.1647 37.6615L77.1189 33.6156L72.6049 36.9875C72.2818 37.2289 71.8453 37.2525 71.498 37.0474C70.0993 36.2214 68.5778 35.5865 66.9643 35.1704C66.5738 35.0697 66.2821 34.7444 66.2243 34.3454L65.4166 28.7674H59.6942ZM56.5676 52.225C56.5676 48.918 59.2485 46.2371 62.5555 46.2371C65.8625 46.2371 68.5433 48.918 68.5433 52.225C68.5433 55.532 65.8625 58.2128 62.5555 58.2128C59.2485 58.2128 56.5676 55.532 56.5676 52.225ZM62.5555 44.2371C58.1439 44.2371 54.5676 47.8134 54.5676 52.225C54.5676 56.6366 58.1439 60.2128 62.5555 60.2128C66.967 60.2128 70.5433 56.6366 70.5433 52.225C70.5433 47.8134 66.967 44.2371 62.5555 44.2371Z"
        fill="currentColor" />
</svg>