<svg width="112" height="48" viewBox="0 0 112 48" fill="none"
  xmlns="http://www.w3.org/2000/svg">
  <path d="M110.167 39.8782C110.167 43.7084 107.037 46.8463 103.207 46.8463H8.12178C4.29163 46.8463 1.16135 43.7084 1.16135 39.8782V8.12177C1.16135 4.29161 4.29932 1.15366 8.12178 1.15366H103.207C107.037 1.15366 110.167 4.29161 110.167 8.12177V39.8782Z" fill="#CE0303"/>
  <path d="M103.207 1.15366C107.037 1.15366 110.167 4.29162 110.167 8.12177V39.8782C110.167 43.7084 107.037 46.8463 103.207 46.8463H8.12178C4.29163 46.8463 1.16135 43.7084 1.16135 39.8782V8.12177C1.16135 4.29162 4.29932 1.15366 8.12178 1.15366H103.207ZM103.207 0H8.12178C3.64558 0 0 3.64557 0 8.12177V39.8782C0 44.3544 3.64558 48 8.12178 48H103.207C107.683 48 111.328 44.3544 111.328 39.8782V8.12177C111.328 3.63788 107.683 0 103.207 0Z" fill="white"/>
  <path d="M81.9253 17.1357C77.9798 22.0041 78.7335 29.1722 83.602 33.1178C85.617 34.7559 88.1628 35.6558 90.7547 35.6558C94.2003 35.6558 97.4228 34.1176 99.5917 31.4411C103.537 26.5727 102.784 19.4046 97.9151 15.459C95.9 13.8208 93.3543 12.9287 90.7624 12.9287C87.3168 12.921 84.0942 14.4592 81.9253 17.1357ZM82.5406 17.6356C82.6867 17.4587 82.8329 17.2895 82.9867 17.1203C83.5328 17.028 84.1942 17.3818 84.8633 17.9279C85.394 18.3509 85.8016 18.797 85.9631 19.2431C86.6015 18.7354 87.3398 18.3432 88.1474 18.1125C88.4397 18.0279 88.7396 17.9663 89.0396 17.9202C87.8398 18.3124 86.7861 18.9969 85.9554 19.9045C85.8785 19.9891 85.8016 20.066 85.7324 20.1583C85.7016 20.1891 85.6786 20.2275 85.6555 20.2583C84.5941 21.5965 84.1019 23.2655 84.2865 24.9729C84.448 26.5496 85.171 27.9724 86.3169 29.0415C85.6786 28.8646 85.0018 29.403 84.3711 30.1875C83.8404 30.8412 83.4789 31.4949 83.5635 32.0333C79.5257 28.2801 79.0258 21.9734 82.5406 17.6356ZM90.7624 18.5047C92.0775 18.5047 93.3697 18.9662 94.4003 19.7968C96.8768 21.8042 97.2613 25.4497 95.254 27.9263C94.1541 29.2876 92.5159 30.0721 90.7624 30.0721C89.4395 30.0721 88.1474 29.6106 87.1245 28.78C85.9247 27.8109 85.171 26.4265 85.0171 24.896C84.8556 23.3578 85.3017 21.858 86.2785 20.6582C87.3706 19.2892 89.0088 18.5047 90.7624 18.5047ZM98.9764 30.9412C98.8457 31.1027 98.6457 31.3027 98.5381 31.418C97.7536 32.2717 96.8076 32.9947 95.7385 33.5254C95.4693 33.6638 95.1924 33.7869 94.9155 33.8946C96.0846 33.2408 97.1075 32.3871 97.9458 31.3796C97.5305 31.2642 97.0844 30.9873 96.6307 30.6182C95.8923 30.0182 95.3693 29.3799 95.4616 28.7723C95.5847 28.6415 95.7 28.5108 95.8154 28.3724C97.9612 25.7266 97.6766 21.8888 95.254 19.5738C95.8539 19.6584 96.4845 19.1354 97.0767 18.4047C97.6459 17.7048 98.0227 17.005 97.8689 16.4435C101.991 20.1967 102.522 26.565 98.9764 30.9412Z" fill="white"/>
  <path d="M72.2115 8.83704V38.5015H73.3652V8.83704H72.2115ZM7.95258 16.805H12.9825V30.2721H17.5587V16.805H22.6348V13.6824H7.96026V16.805H7.95258ZM23.4578 18.4201V30.2721H27.8955V21.1658C27.8955 21.1658 29.2415 20.8659 30.572 20.8659C31.3257 20.8659 32.1333 20.9582 32.1333 20.9582V17.6664C32.1333 17.6664 31.0489 17.6202 30.6182 17.6202C26.265 17.6202 23.4578 18.4201 23.4578 18.4201ZM41.7164 26.588C41.6164 26.2727 39.0014 18.5432 38.7553 17.7971H33.6869C34.2714 19.0815 39.4475 30.4336 39.486 30.5259L36.6172 36.3403H41.3011L49.769 17.7971H44.6775L41.7164 26.588ZM57.4216 17.5818C53.6914 17.5818 50.315 18.8047 50.315 22.9963C50.315 24.9806 51.461 26.3342 53.053 27.0803C53.053 27.0803 53.0915 27.0957 53.153 27.1264L52.73 27.4264C51.5764 28.2032 50.3304 29.3107 50.3304 30.8643C50.3304 32.041 51.1841 32.7717 52.1532 33.1178C53.4376 33.6254 55.045 33.5715 56.1987 33.5946C56.7909 33.6177 58.806 33.3946 59.7366 33.733C60.0519 33.8715 60.3288 34.1868 60.3288 34.556C60.3288 35.2713 59.2059 37.2402 59.2059 37.2402H63.4437L63.6436 36.7941L64.3051 35.3174C64.5204 34.7944 64.605 34.4329 64.605 33.9253V33.8869C64.4589 30.2413 60.175 30.2644 59.3597 30.2105L56.5448 30.1336C56.5448 30.1336 55.0219 30.2105 55.0219 29.2261C55.0219 28.5877 55.668 28.0493 56.3602 27.6109C56.3602 27.6109 57.3293 27.6955 58.1138 27.6955C61.6824 27.6955 64.3358 26.1804 64.3358 22.9732C64.3358 21.7119 63.659 20.5429 63.4129 20.1045L65.428 20.2044V17.7818H60.5211C60.5057 17.7971 59.1905 17.5818 57.4216 17.5818ZM57.3985 25.3421H57.3062C55.4988 25.3421 54.6605 24.4807 54.6605 22.6117C54.6605 20.7736 55.5219 19.8814 57.3062 19.8814H57.4139C59.1598 19.9045 60.0135 20.7967 60.0135 22.6117C60.0058 24.4576 59.1828 25.319 57.3985 25.3421Z" fill="white"/>
</svg>
  