<svg
    width="32"
    height="32"
    viewBox="0 0 32 32"
    fill="none"
    xmlns="http://www.w3.org/2000/svg"
  >
    <path
      fill-rule="evenodd"
      clip-rule="evenodd"
      d="M12.5472 14.1762C12.7665 14.5276 12.6595 14.9902 12.3081 15.2096C11.1972 15.9031 9.71896 17.0907 8.74176 18.3437C8.25186 18.9719 7.92652 19.5678 7.80407 20.0871C7.68802 20.5792 7.75603 20.9753 8.02398 21.3218L8.02398 21.3218C8.20571 21.5568 8.35984 21.6612 8.47118 21.7076C8.57616 21.7515 8.68627 21.7623 8.82202 21.7344C9.13337 21.6705 9.54513 21.4083 10.0324 20.9198C10.233 20.7186 10.3417 20.5365 10.531 20.2193L10.531 20.2193L10.531 20.2192C10.5938 20.1141 10.6653 19.9942 10.752 19.8539C11.0835 19.3171 11.5527 18.6452 12.4654 17.7178C12.756 17.4225 13.2308 17.4188 13.5261 17.7093C13.8213 17.9999 13.8251 18.4747 13.5345 18.7699C12.7069 19.6109 12.3058 20.1927 12.0282 20.6421C11.9765 20.7259 11.9254 20.812 11.8735 20.8998L11.8734 20.8998C11.8052 21.0149 11.7355 21.1327 11.6606 21.251C11.6903 21.2503 11.7201 21.25 11.75 21.25C13.8309 21.25 15.5 22.9191 15.5 25V26C15.5 26.084 15.4973 26.1674 15.4919 26.25H16.2581C16.2527 26.1674 16.25 26.084 16.25 26V25C16.25 22.9191 17.9191 21.25 20 21.25C20.0363 21.25 20.0724 21.2505 20.1084 21.2515C20.0595 21.1642 20.0112 21.078 19.962 20.9938C19.6826 20.5147 19.2797 19.8964 18.4506 19.0044C18.1686 18.701 18.186 18.2265 18.4894 17.9445C18.7928 17.6625 19.2673 17.6798 19.5493 17.9832C20.4607 18.9636 20.928 19.6728 21.2577 20.2379C21.3433 20.3847 21.4143 20.5107 21.4769 20.6217C21.6672 20.9594 21.7788 21.1574 21.9825 21.3737C22.4735 21.895 22.884 22.1689 23.1864 22.2347C23.3143 22.2626 23.4157 22.2519 23.5145 22.2082C23.6222 22.1606 23.778 22.0504 23.9636 21.7963C24.2409 21.4166 24.3135 20.9759 24.1966 20.4388C24.0749 19.8799 23.7506 19.2471 23.2676 18.5858C22.303 17.2649 20.8393 16.0109 19.7252 15.2662C19.3809 15.036 19.2883 14.5702 19.5185 14.2259C19.7487 13.8815 20.2145 13.7889 20.5589 14.0191C21.7752 14.8322 23.3834 16.2011 24.479 17.7011C25.0261 18.4503 25.4789 19.2774 25.6622 20.1197C25.8504 20.9838 25.756 21.8854 25.1749 22.6809C24.8786 23.0868 24.5303 23.3992 24.1209 23.5802C23.9267 23.666 23.7303 23.7171 23.5349 23.7384C23.6743 24.1321 23.75 24.5567 23.75 25V26C23.75 28.0809 22.0809 29.75 20 29.75C18.5524 29.75 17.3041 28.9422 16.6783 27.75H15.0717C14.4459 28.9422 13.1976 29.75 11.75 29.75C9.66912 29.75 8 28.0809 8 26V25C8 24.3607 8.15753 23.7603 8.43614 23.2352C8.25535 23.2136 8.0736 23.1671 7.89336 23.0919C7.48759 22.9225 7.13765 22.6277 6.83737 22.2394C6.24051 21.4675 6.14553 20.585 6.34411 19.7428C6.53628 18.9279 7.00318 18.1339 7.55893 17.4213C8.67303 15.9927 10.2998 14.695 11.5138 13.9371C11.8652 13.7178 12.3278 13.8248 12.5472 14.1762ZM9.5 25C9.5 23.7475 10.4975 22.75 11.75 22.75C13.0025 22.75 14 23.7475 14 25V26C14 27.2525 13.0025 28.25 11.75 28.25C10.4975 28.25 9.5 27.2525 9.5 26V25ZM20 22.75C18.7475 22.75 17.75 23.7475 17.75 25V26C17.75 27.2525 18.7475 28.25 20 28.25C21.2525 28.25 22.25 27.2525 22.25 26V25C22.25 23.7475 21.2525 22.75 20 22.75Z"
    />
    <path
      d="M18 9C18.4142 9 18.75 8.66421 18.75 8.25C18.75 7.83579 18.4142 7.5 18 7.5C17.5858 7.5 17.25 7.83579 17.25 8.25C17.25 8.66421 17.5858 9 18 9Z"
    />
    <path
      fill-rule="evenodd"
      clip-rule="evenodd"
      d="M7.25 5.6C7.25 3.77626 8.70245 2.25 10.5263 2.25C11.6888 2.25 12.6763 2.84368 13.2565 3.73881C14.0833 3.3472 15.0122 3.11667 16 3.11667C16.9892 3.11667 17.9192 3.34784 18.7469 3.74043C19.3385 2.84121 20.3481 2.25 21.4737 2.25C23.2976 2.25 24.75 3.77626 24.75 5.6C24.75 7.05949 23.8325 8.31548 22.5465 8.77199C22.6119 9.14943 22.6447 9.53376 22.6447 9.93333C22.6447 13.6637 19.6765 16.75 16 16.75C12.3235 16.75 9.35526 13.6637 9.35526 9.93333C9.35526 9.53376 9.38805 9.14943 9.4535 8.77198C8.16751 8.31548 7.25 7.05949 7.25 5.6ZM10.5263 3.75C9.57123 3.75 8.75 4.56374 8.75 5.6C8.75 6.60706 9.51148 7.39215 10.4076 7.45165C10.6353 7.46677 10.8437 7.58475 10.9739 7.7722C11.1041 7.95965 11.1418 8.19618 11.0765 8.41483C10.9288 8.90882 10.8553 9.3998 10.8553 9.93333C10.8553 12.8763 13.1923 15.25 16 15.25C18.8077 15.25 21.1447 12.8763 21.1447 9.93333C21.1447 9.3998 21.0712 8.90882 20.9235 8.41483C20.8582 8.19618 20.8959 7.95965 21.0261 7.7722C21.1563 7.58475 21.3647 7.46677 21.5924 7.45165C22.4885 7.39215 23.25 6.60706 23.25 5.6C23.25 4.56374 22.4288 3.75 21.4737 3.75C20.7191 3.75 20.0285 4.2626 19.7872 5.00776C19.7157 5.22861 19.5459 5.40389 19.3274 5.48243C19.109 5.56098 18.8665 5.53394 18.6707 5.4092C17.8961 4.91573 16.9818 4.61667 16 4.61667C15.0182 4.61667 14.1039 4.91573 13.3293 5.4092C13.1335 5.53394 12.891 5.56098 12.6726 5.48243C12.4541 5.40389 12.2843 5.22861 12.2128 5.00776C11.9691 4.25534 11.3157 3.75 10.5263 3.75ZM14 9C14.4142 9 14.75 8.66421 14.75 8.25C14.75 7.83579 14.4142 7.5 14 7.5C13.5858 7.5 13.25 7.83579 13.25 8.25C13.25 8.66421 13.5858 9 14 9ZM15 10.25C14.5858 10.25 14.25 10.5858 14.25 11C14.25 11.4099 14.5789 11.7431 14.9872 11.7499L14.9895 11.75C14.9969 11.7506 15.0124 11.752 15.033 11.7554C15.0776 11.7629 15.1256 11.7763 15.1646 11.7958C15.2006 11.8138 15.2138 11.8291 15.2197 11.8379L15.2199 11.8381C15.2233 11.8432 15.25 11.883 15.25 12C15.25 12.4142 15.5858 12.75 16 12.75C16.4142 12.75 16.75 12.4142 16.75 12C16.75 11.883 16.7767 11.8432 16.7801 11.8381L16.7803 11.8379C16.7862 11.8291 16.7994 11.8138 16.8354 11.7958C16.8744 11.7763 16.9224 11.7629 16.967 11.7554C16.9876 11.752 17.0031 11.7506 17.0105 11.75L17.0128 11.7499C17.4211 11.7431 17.75 11.4099 17.75 11C17.75 10.5858 17.4142 10.25 17 10.25V11C17 10.25 16.9996 10.25 16.9993 10.25L16.9985 10.25L16.9969 10.25L16.9933 10.25L16.985 10.2501L16.9638 10.2507C16.9476 10.2512 16.9274 10.2522 16.9036 10.2539C16.8563 10.2572 16.7937 10.2636 16.7205 10.2758C16.5776 10.2996 16.3756 10.3487 16.1646 10.4542C16.1108 10.4811 16.0555 10.5121 16 10.5479C15.9445 10.5121 15.8892 10.4811 15.8354 10.4542C15.6244 10.3487 15.4224 10.2996 15.2795 10.2758C15.2063 10.2636 15.1437 10.2572 15.0964 10.2539C15.0726 10.2522 15.0524 10.2512 15.0362 10.2507L15.015 10.2501L15.0067 10.25L15.0031 10.25L15.0015 10.25L15.0007 10.25C15.0004 10.25 15 10.25 15 11V10.25Z"
    />
  </svg>
