<svg viewBox="0 0 96 96" fill="none" xmlns="http://www.w3.org/2000/svg">
    <path fill-rule="evenodd" clip-rule="evenodd"
        d="M42.0435 8H53.3695V24.2609C53.3695 24.8131 52.9218 25.2609 52.3695 25.2609C51.8172 25.2609 51.3695 24.8131 51.3695 24.2609V10H44.0435V24.2609C44.0435 24.8131 43.5957 25.2609 43.0435 25.2609C42.4912 25.2609 42.0435 24.8131 42.0435 24.2609V8ZM28.4783 40.5215H21C20.4477 40.5215 20 40.0738 20 39.5215C20 38.9692 20.4477 38.5215 21 38.5215H39.6522C40.2044 38.5215 40.6522 38.9692 40.6522 39.5215C40.6522 40.0738 40.2044 40.5215 39.6522 40.5215H30.4783V50.2438C30.4783 51.2604 30.6011 52.8495 30.8637 54.3805C30.9946 55.1439 31.1573 55.8749 31.35 56.5021C31.5373 57.1119 31.7365 57.5683 31.9273 57.8586C33.9488 60.1437 36.1179 62.296 38.4206 64.3017L38.4369 64.3159L38.4526 64.3308C40.4957 66.2719 43.2171 67.3536 46.0472 67.3473H46.0494H49.3658C52.1959 67.3536 54.9174 66.2719 56.9604 64.3308L56.9761 64.3159L56.9924 64.3017C59.2952 62.296 61.4642 60.1437 63.4858 57.8586C63.6765 57.5683 63.8757 57.1119 64.063 56.5021C64.2557 55.8749 64.4184 55.1439 64.5494 54.3805C64.812 52.8495 64.9348 51.2604 64.9348 50.2438V40.5215H55.7609C55.2086 40.5215 54.7609 40.0738 54.7609 39.5215C54.7609 38.9692 55.2086 38.5215 55.7609 38.5215H74.413C74.9653 38.5215 75.413 38.9692 75.413 39.5215C75.413 40.0738 74.9653 40.5215 74.413 40.5215H66.9348V50.2438C66.9348 51.3831 66.8007 53.0856 66.5206 54.7186C66.3802 55.5372 66.2001 56.3564 65.9748 57.0895C65.7539 57.8086 65.471 58.5076 65.0989 59.0433L65.0657 59.091L65.0272 59.1346C64.27 59.9921 63.4926 60.8315 62.6957 61.652V75.9761L65.4047 74.283C65.873 73.9903 66.49 74.1327 66.7827 74.601C67.0754 75.0693 66.933 75.6863 66.4647 75.979L53.3695 84.1635V87.0005C53.3695 87.5528 52.9218 88.0005 52.3695 88.0005C51.8172 88.0005 51.3695 87.5528 51.3695 87.0005V83.055L60.6957 77.2261V63.6329C59.9208 64.371 59.1294 65.0922 58.322 65.7959C55.9068 68.0827 52.6971 69.3545 49.3623 69.3473H46.0516C42.7168 69.3545 39.5062 68.0827 37.091 65.7959C36.2836 65.0922 35.4922 64.371 34.7173 63.6328V77.2261L44.0435 83.055V87.0005C44.0435 87.5528 43.5958 88.0005 43.0435 88.0005C42.4912 88.0005 42.0435 87.5528 42.0435 87.0005V84.1635L28.9483 75.979C28.4799 75.6863 28.3376 75.0693 28.6303 74.601C28.923 74.1327 29.5399 73.9903 30.0083 74.283L32.7173 75.9761V61.652C31.9204 60.8315 31.143 59.9921 30.3858 59.1346L30.3473 59.091L30.3141 59.0433C29.942 58.5076 29.6591 57.8086 29.4382 57.0895C29.213 56.3564 29.0328 55.5372 28.8924 54.7186C28.6123 53.0856 28.4783 51.3831 28.4783 50.2438V40.5215ZM63.512 66.8134C63.8912 66.4119 64.5241 66.3938 64.9256 66.773L69.973 71.5399C70.5803 72.0048 71.0798 72.5903 71.4344 73.26C71.7984 73.9475 71.9996 74.7053 72.0212 75.4793L72.0216 75.4933V81.913C72.0216 82.4653 71.5739 82.913 71.0216 82.913C70.4693 82.913 70.0216 82.4653 70.0216 81.913V75.5222C70.0068 75.0636 69.8867 74.6111 69.6668 74.1958C69.4447 73.7762 69.1252 73.4029 68.727 73.1051L68.6811 73.0707L63.5524 68.227C63.1509 67.8478 63.1328 67.2149 63.512 66.8134ZM31.8606 68.227C32.2621 67.8478 32.2802 67.2149 31.901 66.8134C31.5218 66.4119 30.8889 66.3938 30.4873 66.773L25.44 71.5399C24.8327 72.0048 24.3332 72.5903 23.9786 73.26C23.6146 73.9475 23.4133 74.7053 23.3917 75.4793L23.3914 75.4933V81.913C23.3914 82.4653 23.8391 82.913 24.3914 82.913C24.9436 82.913 25.3914 82.4653 25.3914 81.913V75.5222C25.4061 75.0636 25.5263 74.6111 25.7462 74.1958C25.9683 73.7762 26.2878 73.4029 26.686 73.1051L26.7319 73.0707L31.8606 68.227ZM58.8367 9.84935L57.3043 8.88574V19.1741C57.3043 19.7264 57.752 20.1741 58.3043 20.1741C58.8566 20.1741 59.3043 19.7264 59.3043 19.1741V12.5541C61.5447 14.1122 63.4955 15.8563 64.9649 17.9546C66.7477 20.5003 67.855 23.6143 67.855 27.6524V31.6285L70.8695 33.3242V36.1306C70.8695 36.6829 71.3172 37.1306 71.8695 37.1306C72.4218 37.1306 72.8695 36.6829 72.8695 36.1306V32.1545L69.855 30.4588V27.6524C69.855 23.2123 68.6262 19.6962 66.6031 16.8074C64.5929 13.9368 61.8318 11.7328 58.8367 9.84935ZM38.1087 8.91016V19.1745C38.1087 19.7268 37.6609 20.1745 37.1087 20.1745C36.5564 20.1745 36.1087 19.7268 36.1087 19.1745V12.5314C33.8144 14.0942 31.8551 15.8443 30.3942 17.9512C28.6317 20.4931 27.5579 23.6074 27.5579 27.6528V31.6289L24.5435 33.3246V36.131C24.5435 36.6833 24.0957 37.131 23.5435 37.131C22.9912 37.131 22.5435 36.6833 22.5435 36.131V32.1549L25.5579 30.4592V27.6528C25.5579 23.2199 26.745 19.7042 28.7506 16.8116C30.7442 13.9363 33.5095 11.73 36.586 9.84376L38.1087 8.91016ZM42.3474 33.0364C42.3474 30.0769 44.7466 27.6777 47.7061 27.6777C50.6656 27.6777 53.0648 30.0769 53.0648 33.0364C53.0648 35.9959 50.6656 38.3951 47.7061 38.3951C44.7466 38.3951 42.3474 35.9959 42.3474 33.0364ZM47.7061 25.6777C43.642 25.6777 40.3474 28.9723 40.3474 33.0364C40.3474 37.1005 43.642 40.3951 47.7061 40.3951C51.7702 40.3951 55.0648 37.1005 55.0648 33.0364C55.0648 28.9723 51.7702 25.6777 47.7061 25.6777Z"
        fill="currentColor" />
</svg>