<svg viewBox="0 0 96 96" fill="none" xmlns="http://www.w3.org/2000/svg">
    <path fill-rule="evenodd" clip-rule="evenodd"
        d="M9 20C9 19.4477 9.44772 19 10 19H56C56.5523 19 57 19.4477 57 20V28.491C58.2317 27.3339 59.907 26.6293 61.661 26.6293H76.1568C80.1394 26.594 83.6771 28.9797 85.1444 32.6323L85.1479 32.6412C88.5238 41.2839 88.8906 50.7268 86.313 59.5421C87.0101 60.0002 87.4724 60.786 87.4724 61.6865V63.8902C87.4724 65.3195 86.3081 66.4596 84.8883 66.4596H83.0194C81.2231 68.3857 78.6751 69.5296 75.938 69.5644C75.3858 69.5714 74.9324 69.1294 74.9254 68.5772C74.9184 68.0249 75.3604 67.5716 75.9126 67.5645C77.4828 67.5446 78.9678 67.0698 80.2066 66.2424C79.3009 65.8457 78.6643 64.947 78.6643 63.8902V61.6865L78.6645 61.6675L78.6651 61.6477C78.718 60.2842 79.7944 59.1172 81.2484 59.1172H84.3533C86.8517 50.6835 86.5157 41.6428 83.2867 33.3733C82.1245 30.4855 79.3296 28.5997 76.1707 28.6292L76.1613 28.6293H61.661C59.1479 28.6293 57 30.6442 57 33V55C57 55.5523 56.5523 56 56 56H14.4947L14.4782 59.1172H16.0334C17.4531 59.1172 18.6174 60.2573 18.6174 61.6865V63.8902C18.6174 64.8013 18.1443 65.595 17.4334 66.0506C18.4053 66.7671 19.5509 67.2583 20.7797 67.4636C21.3245 67.5546 21.6923 68.07 21.6013 68.6147C21.5103 69.1594 20.9949 69.5273 20.4502 69.4363C18.303 69.0776 16.3496 68.0211 14.9018 66.4596H12.3934C10.9736 66.4596 9.80933 65.3195 9.80933 63.8902V61.6865C9.80933 60.2573 10.9736 59.1172 12.3934 59.1172H12.4782L12.4947 56H10C9.44772 56 9 55.5523 9 55V20ZM55 34.1892L55 34.1966V54H13.5C13.4465 54 13.3941 54.0042 13.3428 54.0123C13.2916 54.0042 13.2391 54 13.1857 54H11V21H55V34.1892ZM82.8572 64.4596C82.6873 64.4142 82.5089 64.4148 82.3406 64.4596H81.2484C80.9155 64.4596 80.6643 64.1973 80.6643 63.8902V61.7098C80.6856 61.3461 80.9539 61.1172 81.2484 61.1172H84.8883C85.2212 61.1172 85.4724 61.3795 85.4724 61.6865V63.8902C85.4724 64.1973 85.2212 64.4596 84.8883 64.4596H82.8572ZM13.4676 61.1177C13.4587 61.1176 13.4499 61.1175 13.4411 61.1172H12.3934C12.0606 61.1172 11.8093 61.3795 11.8093 61.6865V63.8902C11.8093 64.1973 12.0606 64.4596 12.3934 64.4596H15.0661C15.236 64.4142 15.4145 64.4148 15.5827 64.4596H16.0334C16.3662 64.4596 16.6174 64.1973 16.6174 63.8902V61.6865C16.6174 61.3795 16.3662 61.1172 16.0334 61.1172H13.5049C13.4925 61.1176 13.4801 61.1177 13.4676 61.1177ZM64.4253 35.8947C64.4253 33.4971 66.3985 31.5557 68.7956 31.5557H76.3452C77.3232 31.5557 78.1506 32.0047 78.783 32.5794C79.4138 33.1527 79.9065 33.8976 80.2513 34.6376C80.257 34.6499 80.2625 34.6622 80.2677 34.6747C80.2708 34.6823 80.2739 34.6899 80.2768 34.6975C82.0677 39.3035 82.9743 43.5351 82.94 48.453C82.9379 50.7152 81.1003 52.5211 78.8393 52.5211H66.9757C65.5417 52.5211 64.4253 51.3669 64.4253 49.9852V35.8947ZM68.7956 33.5557C67.4854 33.5557 66.4253 34.6193 66.4253 35.8947V49.9852C66.4253 50.273 66.657 50.5211 66.9757 50.5211H78.8393C80.0147 50.5211 80.94 49.5911 80.94 48.4493V48.4422C80.9726 43.8231 80.1307 39.8495 78.425 35.4538C78.1646 34.9029 77.82 34.4068 77.4379 34.0595C77.0507 33.7077 76.6816 33.5557 76.3452 33.5557H68.7956ZM43 68C42.4477 68 42 68.4477 42 69C42 69.5523 42.4477 70 43 70H53C53.5523 70 54 69.5523 54 69C54 68.4477 53.5523 68 53 68H43ZM57.4446 67.5672C57.4468 71.1477 60.3301 74.0448 63.9645 74.0759H64.0273C67.6235 74.0759 70.5437 71.1482 70.5437 67.5965C70.5437 64.0534 67.6319 61.1484 64.0238 61.1172C60.3871 61.1193 57.4759 63.989 57.4446 67.5672ZM55.4446 67.555C55.4829 62.8557 59.3094 59.1172 64.0279 59.1172H64.0359C68.7171 59.1549 72.5437 62.927 72.5437 67.5965C72.5437 72.2588 68.7227 76.0759 64.0279 76.0759H63.9525C59.2317 76.0382 55.4446 72.2602 55.4446 67.5631L55.4446 67.555ZM32.2487 74.0759C28.6143 74.0448 25.7309 71.1477 25.7288 67.5672C25.7601 63.9877 28.6734 61.1172 32.312 61.1172C35.9083 61.1172 38.8279 64.0448 38.8279 67.5965C38.8279 71.1482 35.9077 74.0759 32.3114 74.0759H32.2487ZM32.312 59.1172C27.5936 59.1172 23.767 62.8558 23.7288 67.555L23.7288 67.5631C23.7288 72.2602 27.5158 76.0382 32.2366 76.0759H32.312C37.0068 76.0759 40.8279 72.2588 40.8279 67.5965C40.8279 62.9343 37.0068 59.1172 32.312 59.1172ZM65.7579 54.8955C65.2057 54.8955 64.7579 55.3432 64.7579 55.8955C64.7579 56.4478 65.2057 56.8955 65.7579 56.8955H68.6227C69.175 56.8955 69.6227 56.4478 69.6227 55.8955C69.6227 55.3432 69.175 54.8955 68.6227 54.8955H65.7579Z"
        fill="currentColor" />
</svg>