<svg viewBox="0 0 96 96" fill="none" xmlns="http://www.w3.org/2000/svg">
    <path fill-rule="evenodd" clip-rule="evenodd"
        d="M48.0055 44.3636L48.0429 44.365C52.3314 44.5254 56.4621 47.5834 60.2704 53.0909L62.3827 55.9692C64.6264 59.0793 66.4151 61.5843 67.7504 63.6837C69.082 65.7771 70.0056 67.5321 70.4763 69.1425C70.9573 70.7884 70.9631 72.276 70.488 73.8017C70.0249 75.2893 69.1206 76.7583 67.8906 78.405L67.8877 78.4089C64.86 82.422 59.7298 82.164 55.7843 81.1649C53.7602 80.6524 51.9137 79.9149 50.5703 79.3053C49.23 78.6972 48.3465 78.1944 48.349 78.1957C48.1881 78.1127 48.0817 78.0929 47.9917 78.0929C47.9534 78.0929 47.923 78.0944 47.8994 78.0965C47.8522 78.1421 47.8115 78.1728 47.8015 78.1803L47.8004 78.1811C47.7803 78.1963 47.7625 78.2087 47.751 78.2165C47.7273 78.2327 47.7035 78.2479 47.6836 78.2603C47.6424 78.2861 47.5917 78.3163 47.5346 78.3495C47.4189 78.4167 47.2597 78.5057 47.0626 78.6112C46.6679 78.8224 46.1119 79.1045 45.4347 79.4151C44.0838 80.0347 42.2296 80.7772 40.2003 81.2899C36.2466 82.2889 31.111 82.5297 28.1194 78.4751C26.8878 76.8342 25.9811 75.3723 25.5159 73.8916C25.0382 72.3708 25.0432 70.8883 25.5245 69.2454C25.9953 67.6387 26.9198 65.8846 28.2526 63.7875C29.5891 61.6844 31.3802 59.17 33.6268 56.0427C33.6267 56.0428 33.6269 56.0425 33.6268 56.0427L35.7409 53.0905C35.7408 53.0908 35.7411 53.0903 35.7409 53.0905C39.6054 47.6715 43.6692 44.5257 47.9681 44.365L48.0055 44.3636ZM47.9938 77.991C47.9931 77.9919 47.9924 77.9928 47.9917 77.9937L47.9938 77.991ZM48.0055 46.3651C44.6817 46.5068 41.1242 48.9862 37.3693 54.2517L37.3682 54.2533L35.2523 57.2078L35.2515 57.2091C32.9969 60.3473 31.241 62.814 29.9406 64.8602C28.6363 66.9124 27.834 68.4759 27.4439 69.8077C27.0643 71.1032 27.0746 72.18 27.424 73.2921C27.7856 74.4433 28.5272 75.687 29.7213 77.2776L29.7266 77.2846C31.9213 80.2626 35.8554 80.3248 39.7104 79.3509C41.586 78.877 43.3213 78.1841 44.6009 77.5972C45.239 77.3046 45.7584 77.0407 46.1191 76.8477C46.2997 76.7511 46.4381 76.6735 46.53 76.6201C46.5385 76.6152 46.5465 76.6105 46.5539 76.6062C47.0042 76.1584 47.6016 76.0929 47.9917 76.0929C48.4547 76.0929 48.8738 76.2159 49.2662 76.4184C49.2714 76.4211 49.2855 76.4289 49.308 76.4413C49.7041 76.6603 52.7144 78.3245 56.2752 79.2261C60.1215 80.2001 64.0623 80.1564 66.2898 77.2061C67.4789 75.6139 68.2181 74.3645 68.5785 73.2071C68.9271 72.0874 68.9364 71.0032 68.5566 69.7036C68.1663 68.3684 67.3648 66.804 66.0628 64.757C64.765 62.7166 63.0126 60.2609 60.7629 57.1424C60.7622 57.1414 60.7614 57.1403 60.7607 57.1393L58.6412 54.2513L58.6332 54.2396C54.9622 48.9269 51.3372 46.5066 48.0055 46.3651Z"
        fill="currentColor" />
    <path fill-rule="evenodd" clip-rule="evenodd"
        d="M35.448 15C35.4574 15 35.4666 15 35.4758 15C37.9181 15 39.6588 16.5456 40.6179 17.723C42.3997 19.897 43.6791 22.987 44.1413 26.4849C44.6058 29.8159 44.1476 33.1952 42.9264 35.8365L42.9197 35.851L42.9125 35.8653C41.7992 38.0845 40.1043 39.766 38.0889 40.1195L38.0808 40.121L38.0808 40.1209C35.9344 40.4793 33.7387 39.2604 32.0475 37.2812C30.3276 35.2683 28.9734 32.3141 28.473 28.746L28.472 28.7386L28.472 28.7386C28.0208 25.3366 28.3741 22.1592 29.4066 19.7172C30.4218 17.3156 32.1658 15.494 34.548 15.1166C34.9138 14.9996 35.209 14.9998 35.448 15ZM35.2299 17.0059C35.202 17.0089 35.1777 17.0134 35.1345 17.0294L35.0328 17.0672L34.9254 17.0823C33.4324 17.2923 32.116 18.4444 31.2487 20.4959C30.3849 22.5392 30.0396 25.3418 30.4542 28.472C30.9091 31.7118 32.1275 34.2961 33.568 35.9819C35.0361 37.7001 36.5875 38.3405 37.7474 38.1489C38.8759 37.949 40.1465 36.9114 41.1177 34.9827C42.1547 32.7311 42.578 29.7503 42.16 26.7578L42.159 26.7503L42.159 26.7503C41.7368 23.5511 40.5765 20.8272 39.0703 18.9898L39.0682 18.9872C38.2587 17.9931 37.029 17 35.4758 17C35.3311 17 35.2758 17.0011 35.2299 17.0059Z"
        fill="currentColor" />
    <path fill-rule="evenodd" clip-rule="evenodd"
        d="M55.1442 18.0401C56.7811 15.9826 58.9768 14.7212 61.3852 15.0519L61.3943 15.0531L61.4034 15.0546C64.252 15.4994 65.7594 17.6788 66.5001 19.3478L66.5011 19.3503C67.6283 21.9086 67.9821 25.188 67.5257 28.6647L67.5255 28.6659C67.0825 32.0068 65.7161 35.1933 63.8288 37.3483C62.1763 39.2513 60.0523 40.4769 57.9865 40.1223C55.9063 39.8277 54.1352 38.0517 53.0326 35.6957C51.9053 33.287 51.368 30.078 51.8654 26.5075C52.3228 23.0661 53.5041 20.1018 55.1442 18.0401ZM56.7094 19.2852C55.3432 21.0026 54.2685 23.6034 53.8476 26.7739L53.8467 26.7805L53.8467 26.7805C53.3968 30.0057 53.8954 32.8209 54.844 34.848C55.8144 36.9213 57.1525 37.9892 58.2773 38.1435L58.2962 38.1461L58.315 38.1494C59.3681 38.3351 60.8524 37.7262 62.32 36.0355L62.323 36.032C63.9114 34.219 65.143 31.4179 65.5428 28.4037C65.964 25.1943 65.6157 22.302 64.6714 20.1578C64.0435 18.7433 62.955 17.3252 61.1041 17.0321C59.6347 16.8342 58.0766 17.5666 56.7094 19.2852Z"
        fill="currentColor" />
    <path fill-rule="evenodd" clip-rule="evenodd"
        d="M10.9232 34.5434C12.0907 33.7695 13.2812 33.546 14.3101 33.546C15.5432 33.546 16.6609 33.8746 17.6704 34.401C20.1979 35.534 22.6185 37.9285 24.4543 40.915C26.3581 44.0011 27.193 47.2357 27.1591 49.9881C27.1258 52.6883 26.2395 55.1455 24.4225 56.3441L24.4186 56.3466C22.6074 57.5293 20.0891 57.3998 17.694 56.3221C15.2647 55.229 12.7955 53.1032 10.8914 49.9683C9.04288 46.96 8 43.7033 8 40.7783C8 38.9727 8.47708 36.2296 10.9081 34.5536L10.9156 34.5485L10.9232 34.5434ZM12.0357 36.2054C10.4186 37.3253 10 39.2246 10 40.7783C10 43.254 10.8941 46.1532 12.5967 48.9233L12.5995 48.9279L12.5995 48.9279C14.319 51.7597 16.4955 53.5897 18.5146 54.4982C20.5672 55.4218 22.2997 55.3403 23.3232 54.6733C24.3396 54.0014 25.1297 52.3608 25.1592 49.9634C25.1881 47.6168 24.4713 44.7515 22.7517 41.9644L22.7508 41.963C21.0419 39.1826 18.8823 37.1275 16.8283 36.2153L16.7979 36.2018L16.7684 36.1863C15.9918 35.7775 15.1818 35.546 14.3101 35.546C13.5833 35.546 12.8032 35.6991 12.0357 36.2054Z"
        fill="currentColor" />
    <path fill-rule="evenodd" clip-rule="evenodd"
        d="M78.4283 34.3678C79.2771 33.9927 80.4968 33.546 81.7739 33.546C82.8114 33.546 84.0024 33.7634 85.1001 34.5329C87.1607 35.9117 88.0467 38.3722 87.998 41.0861C87.9491 43.8137 86.9673 46.9407 85.1176 49.9484C83.329 52.8941 80.7826 55.1952 78.0859 56.4017L78.0729 56.4075L78.0597 56.413C75.6725 57.4001 73.2305 57.5129 71.4957 56.3108C69.7836 55.1244 68.9417 52.7733 68.8464 50.2196L68.8462 50.2146C68.7486 47.1903 69.7945 43.7303 71.5783 40.8897C73.4428 37.8947 75.884 35.5944 78.398 34.3818L78.4131 34.3745L78.4283 34.3678ZM79.252 36.1904C77.1514 37.2081 74.9796 39.2099 73.2752 41.9483L73.273 41.9518L73.273 41.9518C71.6654 44.5111 70.7629 47.5831 70.8451 50.1475C70.9307 52.4269 71.6765 54.0028 72.6349 54.6669C73.5689 55.3141 75.2003 55.4278 77.2822 54.5702C79.5609 53.5469 81.8084 51.5459 83.4094 48.9081L83.4125 48.9029L83.4125 48.903C85.1168 46.1327 85.9571 43.3499 85.9984 41.0502C86.0398 38.7409 85.2869 37.0602 83.9807 36.1903L83.9697 36.183L83.9589 36.1754C83.2912 35.7048 82.5376 35.546 81.7739 35.546C80.9273 35.546 80.0239 35.8505 79.252 36.1904ZM69.8456 50.1823H69.8456H69.8456Z"
        fill="currentColor" />
</svg>