<svg viewBox="0 0 96 96" fill="none" xmlns="http://www.w3.org/2000/svg">
    <path
        d="M65.3402 61.8741C70.1289 57.3787 77.6856 57.4562 82.3788 62.1066C87.1567 66.8398 87.1567 74.5181 82.3788 79.2514C77.606 83.9795 69.872 83.9795 65.0992 79.2514C61.7311 75.9148 60.7373 71.1148 62.1176 66.9146L54.293 66.914C53.7407 66.914 53.293 66.4663 53.293 65.914C53.293 65.4011 53.679 64.9785 54.1764 64.9207L54.293 64.914H62.516C62.6657 64.914 62.8077 64.9469 62.9351 65.0058C63.4221 64.0934 64.0355 63.2299 64.7747 62.4403L65.0992 62.1066L65.3402 61.8741ZM28.849 47.443C38.254 47.443 45.882 55.0004 45.882 64.327C45.882 73.6536 38.254 81.211 28.849 81.211C19.4447 81.211 11.816 73.6533 11.816 64.327C11.816 55.0007 19.4447 47.443 28.849 47.443ZM80.9711 63.5273C76.9779 59.5705 70.5001 59.5705 66.5068 63.5273C62.5187 67.4781 62.5187 73.8798 66.5068 77.8306C70.5 81.7864 76.978 81.7864 80.9712 77.8306C84.9593 73.8798 84.9592 67.4781 80.9711 63.5273ZM28.849 49.443C20.5451 49.443 13.816 56.1095 13.816 64.327C13.816 72.5445 20.5451 79.211 28.849 79.211C37.1535 79.211 43.882 72.5448 43.882 64.327C43.882 56.1091 37.1535 49.443 28.849 49.443ZM70.382 66.9899C72.3466 65.2252 75.3814 65.2821 77.2769 67.1607C79.2367 69.1029 79.2367 72.255 77.2767 74.1975C75.322 76.1335 72.156 76.1335 70.2013 74.1975C68.2996 72.314 68.242 69.2927 70.0284 67.3403L70.2013 67.1605L70.382 66.9899ZM29.303 12.501H51.295C51.8473 12.501 52.295 12.9487 52.295 13.501C52.295 14.0138 51.9089 14.4365 51.4116 14.4942L51.295 14.501L47.8969 14.5007L56.1689 37.9127H66.6089L66.609 30.35L64.3707 30.3516C64.2908 30.3721 64.2072 30.383 64.121 30.383C64.0348 30.383 63.9511 30.3721 63.8713 30.3516L61.609 30.35V36.285C61.609 36.7978 61.2229 37.2205 60.7256 37.2782L60.609 37.285C60.0962 37.285 59.6735 36.8989 59.6157 36.4016L59.609 36.285V29.452C59.609 28.7818 60.1162 28.4035 60.6487 28.3561L60.763 28.351L63.1209 28.3507L63.121 16.677C63.121 16.1247 63.5687 15.677 64.121 15.677C64.6338 15.677 65.0565 16.063 65.1143 16.5604L65.121 16.677L65.1209 28.3507L67.455 28.351C67.9876 28.351 68.5313 28.6837 68.6014 29.3127L68.609 29.452L68.6089 37.9127L75.344 37.913C77.594 37.913 79.4362 39.6702 79.5458 41.8814L79.551 42.09V56.196C79.551 56.7483 79.1033 57.196 78.551 57.196C78.0382 57.196 77.6155 56.8099 77.5577 56.3126L77.551 56.196V42.09C77.551 40.9427 76.648 39.9984 75.5017 39.9185L75.344 39.913H44.882C44.6623 39.913 44.4501 39.8407 44.277 39.7092L44.1782 39.6234L40.3072 35.7884C39.9403 35.4239 39.456 35.2014 38.9399 35.1564L38.745 35.148H24.34L21.2088 37.2166C20.6444 37.589 20.288 38.197 20.2365 38.8586L20.23 39.025L20.2299 42.7114C22.9258 41.6557 25.8403 41.09 28.849 41.09C41.7943 41.09 52.294 51.4917 52.294 64.326C52.294 67.7791 51.5314 71.1284 50.0807 74.191C49.8443 74.6902 49.2481 74.9031 48.7489 74.6667C48.2498 74.4303 48.0368 73.834 48.2732 73.3349C49.5979 70.5382 50.294 67.4811 50.294 64.326C50.294 52.6005 40.6939 43.09 28.849 43.09C22.0741 43.09 15.8256 46.2209 11.7919 51.4526C11.4547 51.8899 10.8268 51.9711 10.3894 51.6339C9.95201 51.2967 9.87082 50.6688 10.208 50.2314C12.3719 47.4249 15.1191 45.1713 18.2307 43.6039L18.23 39.025C18.23 37.7043 18.8597 36.4657 19.916 35.6812L20.1068 35.5476L23.0989 33.5697L25.1237 16.1977C25.3605 14.1566 27.0527 12.6039 29.0974 12.5059L29.303 12.501ZM75.8691 68.5813C74.6938 67.4165 72.7841 67.4165 71.6089 68.5813C70.4378 69.7412 70.4378 71.6168 71.6087 72.7765C72.784 73.9405 74.694 73.9405 75.8691 72.7767C77.0393 71.6169 77.0393 69.741 75.8691 68.5813ZM21.6934 62.4028C22.735 58.5903 26.6469 56.2619 30.5477 57.1742C34.5321 58.1059 37.0027 62.067 36.0597 66.0219C35.1175 69.9736 31.1263 72.4176 27.145 71.4866C23.2412 70.5724 20.7909 66.7509 21.5808 62.8757L21.6332 62.6384L21.6934 62.4028ZM30.0922 59.1217C27.1804 58.4406 24.2646 60.2255 23.5787 63.1019C22.8945 65.976 24.6922 68.8581 27.6007 69.5392C30.513 70.2202 33.4283 68.435 34.1143 65.558C34.7994 62.6845 33.0014 59.8019 30.0922 59.1217ZM57.707 44.268C58.2198 44.268 58.6425 44.654 58.7003 45.1514L58.707 45.268V54.797C58.707 55.3493 58.2593 55.797 57.707 55.797C57.1942 55.797 56.7715 55.4109 56.7137 54.9136L56.707 54.797V45.268C56.707 44.7157 57.1547 44.268 57.707 44.268ZM64.121 44.268C64.6338 44.268 65.0565 44.654 65.1143 45.1514L65.121 45.268V54.797C65.121 55.3493 64.6733 55.797 64.121 55.797C63.6082 55.797 63.1855 55.4109 63.1277 54.9136L63.121 54.797V45.268C63.121 44.7157 63.5687 44.268 64.121 44.268ZM70.531 44.268C71.0438 44.268 71.4665 44.654 71.5243 45.1514L71.531 45.268V54.797C71.531 55.3493 71.0833 55.797 70.531 55.797C70.0182 55.797 69.5955 55.4109 69.5377 54.9136L69.531 54.797V45.268C69.531 44.7157 69.9787 44.268 70.531 44.268ZM45.7769 14.5007H33.0549V33.1477L38.745 33.148C39.7805 33.148 40.7756 33.5261 41.5429 34.2063L41.7158 34.3686L45.293 37.913L54.0489 37.9127L45.7769 14.5007ZM31.0549 14.5007L29.303 14.501C28.2322 14.501 27.3276 15.2543 27.1339 16.2738L27.1103 16.4287L25.1619 33.1477H31.0549V14.5007Z"
        fill="currentColor" />
</svg>