<svg viewBox="0 0 96 96" fill="none" xmlns="http://www.w3.org/2000/svg">
    <path fill-rule="evenodd" clip-rule="evenodd"
        d="M34.6901 16C36.5 16 38.3411 16.7542 39.7299 17.919C41.1171 19.0824 42.1667 20.7573 42.1667 22.6667V35.8334H86.5C87.0523 35.8334 87.5 36.2811 87.5 36.8334V44.2179C86.8614 43.6565 86.1939 43.127 85.5 42.6322V37.8334H42.1667V44.3334L54.3696 44.3334C53.6647 44.9618 52.9956 45.6297 52.3658 46.3334L41.1667 46.3334C40.9015 46.3334 40.6471 46.228 40.4596 46.0405C40.272 45.8529 40.1667 45.5986 40.1667 45.3334V36.8362L40.1667 36.8334L40.1667 36.8306V22.6667C40.1667 21.5143 39.5232 20.3559 38.4447 19.4514C37.368 18.5483 35.9708 18 34.6901 18L28.4384 18C26.5805 18.0831 25.274 18.7676 24.3084 19.7746C23.4767 20.6418 22.8644 21.7848 22.4112 23.0835L26.505 23.0834L29.3632 23.0834L30.2734 23.0834L30.5255 23.0834H30.5915H30.6084H30.6127H30.6138L30.6141 24.0834L30.614 25.0834H30.6127H30.6084H30.5915H30.5255L30.2734 25.0834L29.3632 25.0834L26.505 25.0834L21.854 25.0835C21.5807 26.3272 21.4158 27.5995 21.2965 28.787C21.2419 29.3305 21.1959 29.8727 21.1523 30.3877C21.074 31.3112 21.0031 32.1475 20.9031 32.7477C20.6874 34.0417 20.2941 35.0529 19.7524 35.8334H31.25C31.8666 35.8334 33.0833 35.1501 33.0833 32.5834V27.5752C33.0833 26.2009 31.9637 25.0834 30.614 25.0834L30.6141 24.0834L30.6138 23.0834C33.0802 23.0834 35.0833 25.1086 35.0833 27.5752V32.5834C35.0833 35.6834 33.4666 37.8334 31.25 37.8334H17.0833C17.0347 37.8334 16.9869 37.83 16.9401 37.8233C16.1075 38.0763 15.2649 38.1627 14.5434 38.2314L14.3235 38.2521C13.8162 38.2998 13.3708 38.3416 12.956 38.4161C12.488 38.5001 12.1366 38.614 11.871 38.7726C11.4492 39.0244 11 39.5308 11 41.0833C11 43.6986 11.0002 46.9432 11.1408 50H13.604C14.9758 50 16 51.1524 16 52.4688V54.5312C16 55.8476 14.9758 57 13.604 57H11.9237C12.0748 57.6305 12.2437 58.1399 12.4274 58.5168C12.5697 58.8088 12.6946 58.9657 12.7785 59.0403C12.8108 59.069 12.8309 59.08 12.8379 59.0834L21.3334 59.0834C21.8856 59.0834 22.3334 59.5311 22.3334 60.0834C22.3334 60.6357 21.8856 61.0834 21.3334 61.0834L12.8333 61.0834C11.6967 61.0834 11.0156 60.1853 10.6295 59.3929C10.3043 58.7256 10.0561 57.8794 9.86133 56.9395C8.76645 56.686 8 55.6699 8 54.5312V52.4688C8 52.4566 8.00022 52.4444 8.00067 52.4322C8.03112 51.5993 8.45971 50.7992 9.15543 50.3562C9.00002 47.1703 9.00002 43.7728 9.00002 41.095V41.0833C9.00002 39.0942 9.6205 37.7869 10.8457 37.0554C11.4035 36.7223 12.0199 36.5522 12.6025 36.4476C13.1069 36.357 13.6442 36.3068 14.1418 36.2603L14.3537 36.2404C15.5312 36.1282 16.4956 35.9924 17.2607 35.5104C17.9555 35.0727 18.625 34.2509 18.9303 32.4189C19.0182 31.8916 19.0763 31.1999 19.1475 30.3533C19.1919 29.8245 19.2415 29.2343 19.3065 28.5871C19.4693 26.9661 19.7235 25.0927 20.2428 23.3036C20.7606 21.52 21.5617 19.7492 22.8649 18.3903C24.193 17.0053 25.9933 16.1015 28.3745 16.0009C28.3885 16.0003 28.4026 16 28.4167 16L34.6901 16ZM46.0724 61.0834C46.1235 60.4089 46.2014 59.7419 46.305 59.0834H43.0876C42.5353 59.0834 42.0876 59.5311 42.0876 60.0834C42.0876 60.6357 42.5353 61.0834 43.0876 61.0834H46.0724ZM10.7212 55C10.7092 54.9998 10.6973 54.9998 10.6853 55H10.396C10.2233 55 10 54.8399 10 54.5312V52.4909C10.0094 52.3239 10.0737 52.1941 10.1494 52.1132C10.2234 52.0342 10.3067 52 10.396 52H13.604C13.7767 52 14 52.1601 14 52.4688V54.5312C14 54.8399 13.7767 55 13.604 55H10.7212ZM39.0651 57.7897C39.0629 61.4957 36.0785 64.4939 32.3174 64.5261H32.3164H32.3154H32.3143H32.3132H32.3122H32.3111H32.31H32.3089H32.3078H32.3068H32.3057H32.3046H32.3035H32.3025H32.3015H32.3004H32.2993H32.2983H32.2971H32.296H32.2949H32.2937H32.2927H32.2917H32.2907H32.2896H32.2886H32.2875H32.2864H32.2854H32.2843H32.2832H32.2821H32.281H32.2798H32.2787H32.2775H32.2764H32.2752H32.2741H32.2729H32.2717H32.2706H32.2694H32.2682H32.267H32.2658H32.2646H32.2636H32.2626H32.2616H32.2606H32.2596H32.2586H32.2575H32.2565H32.2555H32.2545H32.2535H32.2525C28.5306 64.5261 25.5084 61.4962 25.5084 57.8201C25.5084 54.1525 28.5224 51.1463 32.2561 51.1141C36.0195 51.1162 39.0328 54.086 39.0651 57.7897ZM41.0651 57.7775C41.0258 52.9528 37.0972 49.1141 32.252 49.1141H32.244C27.4372 49.1528 23.5084 53.0261 23.5084 57.8201C23.5084 62.6068 27.4316 66.5261 32.252 66.5261H32.2531H32.2541H32.2551H32.2561H32.2571H32.2581H32.2592H32.2602H32.2612H32.2622H32.2632H32.2642H32.2652H32.2664H32.2676H32.2688H32.27H32.2712H32.2723H32.2735H32.2747H32.2758H32.277H32.2781H32.2793H32.2804H32.2815H32.2826H32.2837H32.2848H32.2859H32.287H32.2881H32.2891H32.2902H32.2912H32.2922H32.2932H32.2944H32.2955H32.2967H32.2978H32.2989H32.2999H32.301H32.302H32.3031H32.3042H32.3053H32.3064H32.3074H32.3084H32.3095H32.3106H32.3116H32.3127H32.3137H32.3148H32.3159H32.317H32.318H32.319H32.32H32.3211H32.3295C37.1769 66.4873 41.0651 62.6082 41.0651 57.7857L41.0651 57.7775ZM33.6666 42.5C33.6666 41.9477 33.2189 41.5 32.6666 41.5H29.8333C29.281 41.5 28.8333 41.9477 28.8333 42.5C28.8333 43.0523 29.281 43.5 29.8333 43.5H32.6666C33.2189 43.5 33.6666 43.0523 33.6666 42.5ZM91.0588 63.0002C91.0588 74.0784 82.0782 83.0591 71 83.0591C59.9218 83.0591 50.9412 74.0784 50.9412 63.0002C50.9412 51.922 59.9218 42.9414 71 42.9414C82.0782 42.9414 91.0588 51.922 91.0588 63.0002ZM93.0588 63.0002C93.0588 75.183 83.1827 85.0591 71 85.0591C58.8172 85.0591 48.9412 75.183 48.9412 63.0002C48.9412 50.8175 58.8172 40.9414 71 40.9414C83.1827 40.9414 93.0588 50.8175 93.0588 63.0002ZM69.5294 52.7061V61.5293H60.706V63.5293H69.5294V73.2943L71.5294 73.2943V63.5293H81.2942V61.5293H71.5294V52.7061H69.5294Z"
        fill="currentColor" />
</svg>