<svg viewBox="0 0 96 96" fill="none" xmlns="http://www.w3.org/2000/svg">
    <path fill-rule="evenodd" clip-rule="evenodd"
        d="M75.2976 24.0004C79.2338 23.9655 82.7304 26.3235 84.1806 29.9336L84.1842 29.9425C87.5161 38.4729 87.8791 47.7929 85.3369 56.4941C86.0242 56.9492 86.4793 57.7262 86.4793 58.6163V60.7914C86.4793 62.2094 85.3242 63.3404 83.9158 63.3404H82.0763C80.3011 65.2414 77.7847 66.3701 75.0818 66.4045C74.5296 66.4115 74.0762 65.9695 74.0692 65.4173C74.0622 64.865 74.5042 64.4117 75.0564 64.4046C76.5953 64.3851 78.051 63.9222 79.2676 63.1151C78.3809 62.7168 77.7596 61.8313 77.7596 60.7914V58.6163L77.7598 58.5988L77.7604 58.5775C77.8129 57.2253 78.8805 56.0674 80.3231 56.0674H83.3777C85.8402 47.7483 85.5078 38.8312 82.3229 30.6746C81.1778 27.8293 78.424 25.9712 75.3115 26.0003L75.3021 26.0004H60.9902C58.573 26.0004 56.6344 27.9343 56.6344 30.3063V51.9586C56.6344 52.5109 56.1867 52.9586 55.6344 52.9586H14.2152L14.3772 56.0674H15.955C17.3634 56.0674 18.5185 57.1984 18.5185 58.6163V60.7914C18.5185 61.6884 18.0562 62.4706 17.36 62.9243C18.2017 63.5415 19.1749 63.9877 20.2193 64.2225C20.7582 64.3436 21.0968 64.8786 20.9757 65.4174C20.8546 65.9563 20.3196 66.2949 19.7807 66.1738C17.8711 65.7445 16.143 64.7516 14.8329 63.3404H12.3623C10.954 63.3404 9.79883 62.2094 9.79883 60.7914V58.6163C9.79883 57.1984 10.954 56.0674 12.3623 56.0674H12.3744L12.2125 52.9589H10C9.44772 52.9589 9 52.5112 9 51.9589V44.9062C9 44.354 9.44772 43.9062 10 43.9062H54.6344V30.3063C54.6344 26.8122 57.4861 24.0004 60.9902 24.0004H75.2976ZM13.1617 50.9586L13.1385 50.9589H11V45.9062H54.6344V50.9586H13.1617ZM81.9141 61.3404C81.7444 61.2951 81.5661 61.2957 81.3979 61.3404H80.3231C80.0017 61.3404 79.7596 61.0872 79.7596 60.7914V58.6397C79.7804 58.2872 80.04 58.0674 80.3231 58.0674H83.9158C84.2373 58.0674 84.4793 58.3205 84.4793 58.6163V60.7914C84.4793 61.0872 84.2373 61.3404 83.9158 61.3404H81.9141ZM63.7054 33.1589C63.7054 30.7852 65.659 28.8633 68.032 28.8633H75.4835C76.453 28.8633 77.2726 29.3084 77.8984 29.8771C78.5226 30.4444 79.0098 31.1811 79.3507 31.9127C79.3598 31.9324 79.3684 31.9524 79.3762 31.9726C81.1443 36.5201 82.0395 40.6983 82.0057 45.5542C82.0036 47.7943 80.184 49.5825 77.9452 49.5825H66.2357C64.8131 49.5825 63.7054 48.4373 63.7054 47.0665V33.1589ZM68.032 30.8633C66.7459 30.8633 65.7054 31.9074 65.7054 33.1589V47.0665C65.7054 47.3435 65.9284 47.5825 66.2357 47.5825H77.9452C79.0983 47.5825 80.0057 46.6702 80.0057 45.5505V45.5434C80.0378 40.9863 79.2074 37.066 77.5244 32.7289C77.268 32.1865 76.9288 31.6985 76.5533 31.3572C76.1728 31.0114 75.8114 30.8633 75.4835 30.8633H68.032ZM12.3623 58.0674C12.0409 58.0674 11.7988 58.3205 11.7988 58.6163V60.7914C11.7988 61.0872 12.0409 61.3404 12.3623 61.3404H14.9972C15.167 61.2951 15.3453 61.2957 15.5135 61.3404H15.955C16.2765 61.3404 16.5185 61.0872 16.5185 60.7914V58.6163C16.5185 58.3205 16.2765 58.0674 15.955 58.0674H12.3623ZM43 64.5C42.4477 64.5 42 64.9477 42 65.5C42 66.0523 42.4477 66.5 43 66.5H52C52.5523 66.5 53 66.0523 53 65.5C53 64.9477 52.5523 64.5 52 64.5H43ZM56.8414 64.4207C56.8436 67.9474 59.6837 70.8012 63.2639 70.8318H63.3252C66.8676 70.8318 69.7445 67.9479 69.7445 64.4496C69.7445 60.9598 66.8764 58.0982 63.3222 58.0674C59.7397 58.0695 56.8723 60.8962 56.8414 64.4207ZM54.8415 64.4085C54.8793 59.763 58.662 56.0674 63.3262 56.0674H63.3343C67.9616 56.1047 71.7445 59.8334 71.7445 64.4496C71.7445 69.0585 67.9672 72.8318 63.3262 72.8318H63.2517C58.5852 72.7945 54.8414 69.0599 54.8414 64.4166L54.8415 64.4085ZM31.9599 70.8318C28.3797 70.8012 25.5397 67.9474 25.5375 64.4207C25.5684 60.8949 28.4379 58.0674 32.0223 58.0674C35.5647 58.0674 38.4405 60.9512 38.4405 64.4496C38.4405 67.9479 35.5637 70.8318 32.0213 70.8318H31.9599ZM32.0223 56.0674C27.3581 56.0674 23.5753 59.763 23.5375 64.4085L23.5375 64.4166C23.5375 69.0599 27.2812 72.7945 31.9477 72.8318H32.0223C36.6632 72.8318 40.4405 69.0585 40.4405 64.4496C40.4405 59.8407 36.6632 56.0674 32.0223 56.0674ZM65.0338 51.8994C64.4815 51.8994 64.0338 52.3471 64.0338 52.8994C64.0338 53.4517 64.4815 53.8994 65.0338 53.8994H67.8614C68.4137 53.8994 68.8614 53.4517 68.8614 52.8994C68.8614 52.3471 68.4137 51.8994 67.8614 51.8994H65.0338Z"
        fill="currentColor" />
</svg>