<svg width="29" height="25" viewBox="0 0 29 25" fill="none" xmlns="http://www.w3.org/2000/svg">
<path fill-rule="evenodd" clip-rule="evenodd" d="M13.0029 3.25483C12.7029 3.50812 12.6631 3.67981 12.6631 3.75362C12.6631 3.82744 12.7029 3.99913 13.0029 4.25242C13.2993 4.50277 13.7728 4.76201 14.4236 4.99442C15.7185 5.45691 17.5568 5.75725 19.6232 5.75725C21.6896 5.75725 23.5279 5.45691 24.8229 4.99442C25.4736 4.76201 25.9471 4.50277 26.2436 4.25242C26.5436 3.99913 26.5834 3.82744 26.5834 3.75362C26.5834 3.67981 26.5436 3.50812 26.2436 3.25483C25.9471 3.00448 25.4736 2.74523 24.8229 2.51282C23.5279 2.05034 21.6896 1.75 19.6232 1.75C17.5568 1.75 15.7185 2.05034 14.4236 2.51282C13.7728 2.74523 13.2993 3.00448 13.0029 3.25483ZM13.9191 1.10021C15.4146 0.566081 17.4314 0.25 19.6232 0.25C21.815 0.25 23.8318 0.566081 25.3274 1.10021C26.0719 1.36611 26.7275 1.70022 27.2113 2.10875C27.6917 2.51434 28.0834 3.06705 28.0834 3.75362C28.0834 4.05424 28.0083 4.3292 27.8835 4.57738C28.0074 4.71115 28.0832 4.89019 28.0832 5.08691V7.84054C28.0832 8.5196 27.6997 9.06762 27.2266 9.47179C27.6997 9.87562 28.0834 10.4238 28.0834 11.1015V11.6522C28.0834 12.3388 27.6914 12.8914 27.2111 13.2968C27.1782 13.3246 27.1444 13.3521 27.1099 13.3792C27.1277 13.3914 27.1452 13.4043 27.1622 13.4182C27.6643 13.8266 28.0833 14.3933 28.0833 15.1015V15.6522C28.0833 16.3388 27.6913 16.8914 27.211 17.2968C27.1781 17.3246 27.1443 17.3521 27.1098 17.3792C27.1277 17.3913 27.1451 17.4043 27.1622 17.4182C27.6643 17.8266 28.0833 18.3933 28.0833 19.1015V19.6522C28.0833 20.3388 27.6913 20.8914 27.211 21.2968C26.7271 21.7053 26.0715 22.0394 25.3269 22.3053C23.8313 22.8395 21.8145 23.1558 19.6232 23.1558C18.7761 23.1558 17.9589 23.1104 17.1833 23.0184C16.772 22.9697 16.478 22.5967 16.5268 22.1854C16.5755 21.774 16.9485 21.4801 17.3598 21.5289C18.0712 21.6132 18.8291 21.6558 19.6232 21.6558C21.6889 21.6558 23.5272 21.3553 24.8224 20.8927C25.4732 20.6602 25.9469 20.401 26.2435 20.1506C26.5436 19.8972 26.5833 19.7256 26.5833 19.6522V19.1015C26.5833 19.0276 26.5397 18.8454 26.2157 18.5819C26.0505 18.4475 25.9573 18.2573 25.9414 18.0605C25.7451 18.1478 25.5396 18.2293 25.3269 18.3053C23.8313 18.8395 21.8145 19.1558 19.6232 19.1558C19.2956 19.1558 18.9675 19.1502 18.6413 19.1327C18.2277 19.1106 17.9103 18.7573 17.9325 18.3437C17.9546 17.93 18.3079 17.6127 18.7215 17.6349C19.0122 17.6504 19.3118 17.6558 19.6232 17.6558C21.6889 17.6558 23.5272 17.3553 24.8224 16.8927C25.4732 16.6602 25.9469 16.401 26.2435 16.1506C26.5436 15.8972 26.5833 15.7256 26.5833 15.6522V15.1015C26.5833 15.0276 26.5397 14.8454 26.2157 14.5819C26.0505 14.4475 25.9574 14.2573 25.9414 14.0606C25.7452 14.1478 25.5397 14.2293 25.327 14.3053C23.8314 14.8395 21.8146 15.1558 19.6233 15.1558C19.2587 15.1558 18.9071 15.1445 18.569 15.1336L18.5637 15.1334C18.1497 15.12 17.8249 14.7736 17.8383 14.3596C17.8516 13.9456 18.1981 13.6208 18.6121 13.6342C18.9553 13.6453 19.2848 13.6558 19.6233 13.6558C21.689 13.6558 23.5273 13.3553 24.8225 12.8927C25.4733 12.6602 25.947 12.401 26.2436 12.1506C26.5438 11.8972 26.5834 11.7256 26.5834 11.6522V11.1015C26.5834 11.0276 26.5398 10.8454 26.2158 10.5819C26.0998 10.4875 26.0193 10.3656 25.9762 10.2333C25.7694 10.3264 25.5522 10.4132 25.3268 10.4936C23.8311 11.0279 21.8144 11.3442 19.623 11.3442C18.7356 11.3442 17.879 11.293 17.0813 11.1954C16.6701 11.1451 16.3776 10.7711 16.4279 10.3599C16.4781 9.94877 16.8522 9.65623 17.2634 9.70652C17.9966 9.7962 18.7922 9.84416 19.623 9.84416C21.6888 9.84416 23.5271 9.54364 24.8223 9.08105C25.4731 8.84859 25.9467 8.58929 26.2434 8.33892C26.5435 8.08554 26.5832 7.91396 26.5832 7.84054V5.83625C26.2113 6.05339 25.7862 6.24317 25.3274 6.40704C23.8318 6.94117 21.815 7.25725 19.6232 7.25725C17.4314 7.25725 15.4146 6.94117 13.9191 6.40704C13.4602 6.24314 13.035 6.05333 12.6631 5.83614V6.40608C12.6631 6.82029 12.3273 7.15608 11.9131 7.15608C11.4989 7.15608 11.1631 6.82029 11.1631 6.40608V4.75391C11.1631 4.61171 11.2027 4.47875 11.2714 4.36545C11.2024 4.17523 11.1631 3.97114 11.1631 3.75362C11.1631 3.06705 11.5548 2.51434 12.0351 2.10875C12.5189 1.70022 13.1746 1.36611 13.9191 1.10021ZM8.71014 9.1416C4.86616 9.1416 1.75 12.2578 1.75 16.1017C1.75 19.9457 4.86616 23.0619 8.71014 23.0619C12.5541 23.0619 15.6703 19.9457 15.6703 16.1017C15.6703 12.2578 12.5541 9.1416 8.71014 9.1416ZM0.25 16.1017C0.25 11.4293 4.03774 7.6416 8.71014 7.6416C13.3826 7.6416 17.1703 11.4293 17.1703 16.1017C17.1703 20.7742 13.3826 24.5619 8.71014 24.5619C4.03774 24.5619 0.25 20.7742 0.25 16.1017ZM5.75 13.667C5.75 13.2528 5.41421 12.917 5 12.917C4.58579 12.917 4.25 13.2528 4.25 13.667V18.5258C4.25 18.94 4.58579 19.2758 5 19.2758C5.41421 19.2758 5.75 18.94 5.75 18.5258V17.0197L7.32973 18.9944C7.58848 19.3178 8.06045 19.3702 8.3839 19.1115C8.70735 18.8527 8.75979 18.3808 8.50103 18.0573L6.93232 16.0964L8.50103 14.1355C8.75979 13.8121 8.70735 13.3401 8.3839 13.0814C8.06045 12.8226 7.58848 12.8751 7.32973 13.1985L5.75 15.1732V13.667ZM11.7825 14.417H10.6089V15.8658C10.6795 15.8439 10.7541 15.8323 10.8307 15.8323H11.7825C11.7967 15.8232 11.826 15.7987 11.8655 15.7393C11.9485 15.6149 12.0242 15.3997 12.0242 15.1246C12.0242 14.8495 11.9485 14.6344 11.8655 14.51C11.826 14.4506 11.7967 14.4261 11.7825 14.417ZM12.2438 19.0561L10.6089 17.4212V18.5258C10.6089 18.94 10.2731 19.2758 9.85889 19.2758C9.44467 19.2758 9.10889 18.94 9.10889 18.5258V13.667C9.10889 13.2528 9.44467 12.917 9.85889 12.917H11.8024C12.3995 12.917 12.8483 13.28 13.1136 13.6779C13.3823 14.081 13.5242 14.5947 13.5242 15.1246C13.5242 15.6546 13.3823 16.1683 13.1136 16.5714C12.9597 16.8022 12.7441 17.0213 12.4736 17.1645L13.3045 17.9955C13.5974 18.2884 13.5974 18.7632 13.3045 19.0561C13.0116 19.349 12.5367 19.349 12.2438 19.0561ZM11.7727 14.4122C11.7727 14.412 11.7746 14.4125 11.778 14.4144L11.775 14.4134C11.7742 14.4131 11.7736 14.4129 11.7732 14.4126C11.7728 14.4125 11.7727 14.4123 11.7727 14.4122ZM11.7727 15.837C11.7726 15.8368 11.7744 15.8359 11.778 15.8349C11.7746 15.8368 11.7727 15.8373 11.7727 15.837Z" fill="#222222"/>
</svg>
